<svg width="100" height="100" viewBox="0 0 100 100" xmlns="http://www.w3.org/2000/svg">
  <!-- Footsteps with gradient -->
  <defs>
    <linearGradient id="footprintGradient" x1="0%" y1="0%" x2="0%" y2="100%">
      <stop offset="0%" stop-color="rgba(121,85,72,0.9)" />
      <stop offset="100%" stop-color="rgba(78,52,46,1)" />
    </linearGradient>
  </defs>
  
  <!-- Right footprint -->
  <path d="M70,20 
           C75,18 80,20 82,25
           C84,30 83,40 80,45
           C77,50 72,52 68,50
           C64,48 62,42 64,35
           C66,28 68,22 70,20 Z" 
        fill="url(#footprintGradient)" />
  
  <!-- Left footprint -->
  <path d="M30,50 
           C35,48 40,50 42,55
           C44,60 43,70 40,75
           C37,80 32,82 28,80
           C24,78 22,72 24,65
           C26,58 28,52 30,50 Z" 
        fill="url(#footprintGradient)" />
  
  <!-- Highlights for 3D effect -->
  <path d="M72,25 C74,30 73,35 71,40" 
        fill="none" 
        stroke="rgba(255,255,255,0.3)" 
        stroke-width="1.5" 
        stroke-linecap="round" />
  
  <path d="M32,55 C34,60 33,65 31,70" 
        fill="none" 
        stroke="rgba(255,255,255,0.3)" 
        stroke-width="1.5" 
        stroke-linecap="round" />
</svg>